<?xml version="1.0" encoding="UTF-8" standalone="no"?>
<svg
   xmlns:osb="http://www.openswatchbook.org/uri/2009/osb"
   xmlns:dc="http://purl.org/dc/elements/1.1/"
   xmlns:cc="http://creativecommons.org/ns#"
   xmlns:rdf="http://www.w3.org/1999/02/22-rdf-syntax-ns#"
   xmlns:svg="http://www.w3.org/2000/svg"
   xmlns="http://www.w3.org/2000/svg"
   xmlns:sodipodi="http://sodipodi.sourceforge.net/DTD/sodipodi-0.dtd"
   xmlns:inkscape="http://www.inkscape.org/namespaces/inkscape"
   width="32"
   height="32"
   viewBox="0 0 8.4666667 8.4666667"
   version="1.1"
   id="svg8"
   inkscape:version="1.0.1 (3bc2e813f5, 2020-09-07)"
   sodipodi:docname="2.svg">
  <defs
     id="defs2">
    <linearGradient
       id="linearGradient3523"
       osb:paint="solid">
      <stop
         style="stop-color:#000000;stop-opacity:1;"
         offset="0"
         id="stop3521" />
    </linearGradient>
    <linearGradient
       id="linearGradient864"
       osb:paint="solid">
      <stop
         style="stop-color:#000000;stop-opacity:1;"
         offset="0"
         id="stop862" />
    </linearGradient>
  </defs>
  <sodipodi:namedview
     id="base"
     pagecolor="#ffffff"
     bordercolor="#666666"
     borderopacity="1.0"
     inkscape:pageopacity="0.0"
     inkscape:pageshadow="2"
     inkscape:zoom="11.313708"
     inkscape:cx="18.953398"
     inkscape:cy="17.189533"
     inkscape:document-units="px"
     inkscape:current-layer="layer1"
     inkscape:document-rotation="0"
     showgrid="false"
     units="px"
     inkscape:window-width="1600"
     inkscape:window-height="837"
     inkscape:window-x="-8"
     inkscape:window-y="-8"
     inkscape:window-maximized="1" />
  <metadata
     id="metadata5">
    <rdf:RDF>
      <cc:Work
         rdf:about="">
        <dc:format>image/svg+xml</dc:format>
        <dc:type
           rdf:resource="http://purl.org/dc/dcmitype/StillImage" />
        <dc:title></dc:title>
      </cc:Work>
    </rdf:RDF>
  </metadata>
  <g
     inkscape:label="Слой 1"
     inkscape:groupmode="layer"
     id="layer1">
    <rect
       style="opacity:0.975;fill:#ccdde4;fill-opacity:1;stroke:#000000;stroke-width:0.132292;stroke-linecap:round;stroke-linejoin:bevel;stroke-miterlimit:4;stroke-dasharray:none;stroke-dashoffset:0;stroke-opacity:0.980392;image-rendering:auto"
       id="rect1510"
       width="7.9375"
       height="7.9375"
       x="0.26458335"
       y="0.26458335"
       rx="0.79374999"
       ry="0.79374999" />
    <g
       aria-label="B"
       id="text856"
       style="font-style:normal;font-weight:normal;font-size:10.5833px;line-height:1.25;font-family:sans-serif;fill:#000000;fill-opacity:1;stroke:none;stroke-width:0.264583">
      <path
         d="m 6.0936861,5.161787 q 0,0.599447 -0.3617353,1.0300842 Q 5.349545,6.643179 4.7604333,6.643179 q -0.2204863,0 -0.6649039,-0.010335 -0.4409725,-0.010335 -0.6614587,-0.010335 -0.1619196,0 -0.4892039,0.01378 -0.3238392,0.01378 -0.4857588,0.01378 -0.086127,0 -0.086127,-0.079237 0,-0.3789608 0.034451,-1.1368823 0.037896,-0.7613665 0.037896,-1.1403273 0,-0.3996313 -0.037896,-1.198894 -0.034451,-0.8027078 -0.034451,-1.2023391 0,-0.075792 0.086127,-0.075792 0.3066137,0 0.9232862,0.00345 0.6166725,0.00345 0.9267313,0.00345 0.7234705,0 1.1541077,0.2687177 0.5236549,0.3272842 0.5236549,1.0163038 0,0.2377117 -0.1378039,0.4960941 -0.137804,0.2549372 -0.3341745,0.3858509 -0.099908,0.065457 -0.099908,0.086127 0,0.020671 0.099908,0.075792 0.2618274,0.1446941 0.4203019,0.4271921 0.1584745,0.2790529 0.1584745,0.5822215 z M 5.1256136,3.1843009 q 0,-0.4857587 -0.4340823,-0.6545685 -0.2618274,-0.099908 -0.8578293,-0.099908 -0.5787764,0 -0.5787764,0.086127 0,0.1136882 -0.010335,0.3410647 -0.010335,0.2273764 -0.010335,0.3445097 0,0.079237 0.00345,0.244602 0.00345,0.1653647 0.00345,0.248047 0,0.099908 0.7785921,0.099908 1.1058763,0 1.1058763,-0.6097823 z m 0.093018,1.9430351 q 0,-0.4203019 -0.3755157,-0.5684411 -0.2377117,-0.096463 -0.740696,-0.096463 -0.8681646,0 -0.8681646,0.093018 v 0.5649961 q 0,0.1240235 0.00689,0.3789607 0.00689,0.2549372 0.00689,0.3824058 0,0.034451 0.2204862,0.051677 0.2204863,0.017225 0.6545686,0.017225 0.5443254,0 0.7820372,-0.141249 Q 5.2186313,5.6234301 5.2186313,5.127336 Z"
         style="font-style:normal;font-variant:normal;font-weight:normal;font-stretch:normal;font-size:7.05556px;font-family:'Berlin Sans FB';-inkscape-font-specification:'Berlin Sans FB';stroke-width:0.264583"
         id="path861" />
    </g>
  </g>
</svg>
