<?xml version="1.0" encoding="UTF-8" standalone="no"?>
<svg
   xmlns:osb="http://www.openswatchbook.org/uri/2009/osb"
   xmlns:dc="http://purl.org/dc/elements/1.1/"
   xmlns:cc="http://creativecommons.org/ns#"
   xmlns:rdf="http://www.w3.org/1999/02/22-rdf-syntax-ns#"
   xmlns:svg="http://www.w3.org/2000/svg"
   xmlns="http://www.w3.org/2000/svg"
   xmlns:sodipodi="http://sodipodi.sourceforge.net/DTD/sodipodi-0.dtd"
   xmlns:inkscape="http://www.inkscape.org/namespaces/inkscape"
   width="32"
   height="32"
   viewBox="0 0 8.4666667 8.4666667"
   version="1.1"
   id="svg8"
   inkscape:version="1.0.1 (3bc2e813f5, 2020-09-07)"
   sodipodi:docname="6.svg">
  <defs
     id="defs2">
    <linearGradient
       id="linearGradient3523"
       osb:paint="solid">
      <stop
         style="stop-color:#000000;stop-opacity:1;"
         offset="0"
         id="stop3521" />
    </linearGradient>
    <linearGradient
       id="linearGradient864"
       osb:paint="solid">
      <stop
         style="stop-color:#000000;stop-opacity:1;"
         offset="0"
         id="stop862" />
    </linearGradient>
  </defs>
  <sodipodi:namedview
     id="base"
     pagecolor="#ffffff"
     bordercolor="#666666"
     borderopacity="1.0"
     inkscape:pageopacity="0.0"
     inkscape:pageshadow="2"
     inkscape:zoom="11.313708"
     inkscape:cx="18.953398"
     inkscape:cy="7.8838978"
     inkscape:document-units="px"
     inkscape:current-layer="layer1"
     inkscape:document-rotation="0"
     showgrid="false"
     units="px"
     inkscape:window-width="1600"
     inkscape:window-height="837"
     inkscape:window-x="-8"
     inkscape:window-y="-8"
     inkscape:window-maximized="1" />
  <metadata
     id="metadata5">
    <rdf:RDF>
      <cc:Work
         rdf:about="">
        <dc:format>image/svg+xml</dc:format>
        <dc:type
           rdf:resource="http://purl.org/dc/dcmitype/StillImage" />
        <dc:title></dc:title>
      </cc:Work>
    </rdf:RDF>
  </metadata>
  <g
     inkscape:label="Слой 1"
     inkscape:groupmode="layer"
     id="layer1">
    <rect
       style="opacity:0.975;fill:#ccdde4;fill-opacity:1;stroke:#000000;stroke-width:0.132292;stroke-linecap:round;stroke-linejoin:bevel;stroke-miterlimit:4;stroke-dasharray:none;stroke-dashoffset:0;stroke-opacity:0.980392;image-rendering:auto"
       id="rect1510"
       width="7.9375"
       height="7.9375"
       x="0.26458335"
       y="0.26458335"
       rx="0.79374999"
       ry="0.79374999" />
    <g
       aria-label="F"
       id="text856"
       style="font-style:normal;font-weight:normal;font-size:10.5833px;line-height:1.25;font-family:sans-serif;fill:#000000;fill-opacity:1;stroke:none;stroke-width:0.264583">
      <path
         d="m 5.8922117,2.5352976 q 0,0.065457 -0.072347,0.065457 -0.2687176,0 -0.881945,-0.031006 -0.5718862,-0.027561 -0.881945,-0.020671 l -0.2514922,0.00345 q -0.2411568,0.00345 -0.2549372,0.010335 -0.068902,0.027561 -0.068902,0.2170412 v 0.8302685 q 0,0.2342667 0.099908,0.2342667 0.3341745,0 1.0059685,-0.031006 0.6752392,-0.031006 1.0094136,-0.031006 0.072347,0 0.072347,0.055122 0,0.058567 -0.010335,0.1757 -0.00689,0.1136882 -0.00689,0.1722548 0,0.062012 0.00689,0.1894804 0.00689,0.1240235 0.00689,0.1860353 0,0.041341 -0.072347,0.041341 -0.2377117,0 -0.7234705,-0.01378 -0.4823137,-0.01378 -0.7234705,-0.01378 -0.4444176,0 -0.5029843,0.00689 -0.1550294,0.017225 -0.1550294,0.1274686 0,0.3100588 0.017225,0.9301764 0.017225,0.6201176 0.017225,0.9301764 0,0.1033529 -0.082682,0.1033529 -0.068902,0 -0.2067059,-0.01378 -0.1343588,-0.017226 -0.2067059,-0.017226 -0.058567,0 -0.179145,0.010335 -0.1205785,0.010335 -0.1791451,0.010335 -0.086128,0 -0.086128,-0.075792 0,-0.3824059 0.031006,-1.1506627 0.034451,-0.7682568 0.034451,-1.1506626 0,-0.3548451 -0.072347,-2.3082155 v -0.044786 q -0.00345,-0.072347 0.086128,-0.082682 0.027561,0 0.4375274,0.010335 0.5408803,0.010335 1.0025234,0.00345 0.6235627,-0.00689 1.5881901,-0.068902 0.1309137,-0.010335 0.1481392,0.1136883 -0.00345,0.093018 0.01378,0.282498 0.041341,0.2652725 0.041341,0.3445097 z"
         style="font-style:normal;font-variant:normal;font-weight:normal;font-stretch:normal;font-size:7.05556px;font-family:'Berlin Sans FB';-inkscape-font-specification:'Berlin Sans FB';stroke-width:0.264583"
         id="path858" />
    </g>
  </g>
</svg>
