<?xml version="1.0" encoding="UTF-8" standalone="no"?>
<svg
   xmlns:osb="http://www.openswatchbook.org/uri/2009/osb"
   xmlns:dc="http://purl.org/dc/elements/1.1/"
   xmlns:cc="http://creativecommons.org/ns#"
   xmlns:rdf="http://www.w3.org/1999/02/22-rdf-syntax-ns#"
   xmlns:svg="http://www.w3.org/2000/svg"
   xmlns="http://www.w3.org/2000/svg"
   xmlns:sodipodi="http://sodipodi.sourceforge.net/DTD/sodipodi-0.dtd"
   xmlns:inkscape="http://www.inkscape.org/namespaces/inkscape"
   width="32"
   height="32"
   viewBox="0 0 8.4666667 8.4666667"
   version="1.1"
   id="svg8"
   inkscape:version="1.0.1 (3bc2e813f5, 2020-09-07)"
   sodipodi:docname="6.svg">
  <defs
     id="defs2">
    <linearGradient
       id="linearGradient3523"
       osb:paint="solid">
      <stop
         style="stop-color:#000000;stop-opacity:1;"
         offset="0"
         id="stop3521" />
    </linearGradient>
    <linearGradient
       id="linearGradient864"
       osb:paint="solid">
      <stop
         style="stop-color:#000000;stop-opacity:1;"
         offset="0"
         id="stop862" />
    </linearGradient>
  </defs>
  <sodipodi:namedview
     id="base"
     pagecolor="#ffffff"
     bordercolor="#666666"
     borderopacity="1.0"
     inkscape:pageopacity="0.0"
     inkscape:pageshadow="2"
     inkscape:zoom="11.313708"
     inkscape:cx="22.060142"
     inkscape:cy="7.5972548"
     inkscape:document-units="px"
     inkscape:current-layer="layer1"
     inkscape:document-rotation="0"
     showgrid="false"
     units="px"
     inkscape:window-width="1600"
     inkscape:window-height="837"
     inkscape:window-x="-8"
     inkscape:window-y="-8"
     inkscape:window-maximized="1" />
  <metadata
     id="metadata5">
    <rdf:RDF>
      <cc:Work
         rdf:about="">
        <dc:format>image/svg+xml</dc:format>
        <dc:type
           rdf:resource="http://purl.org/dc/dcmitype/StillImage" />
        <dc:title></dc:title>
      </cc:Work>
    </rdf:RDF>
  </metadata>
  <g
     inkscape:label="Слой 1"
     inkscape:groupmode="layer"
     id="layer1">
    <rect
       style="opacity:0.975;fill:#ccdde4;fill-opacity:1;stroke:#000000;stroke-width:0.132292;stroke-linecap:round;stroke-linejoin:bevel;stroke-miterlimit:4;stroke-dasharray:none;stroke-dashoffset:0;stroke-opacity:0.980392;image-rendering:auto"
       id="rect1510"
       width="7.9375"
       height="7.9375"
       x="0.26458335"
       y="0.26458335"
       rx="0.79374999"
       ry="0.79374999" />
    <g
       aria-label="VI"
       id="text906"
       style="font-style:normal;font-weight:normal;font-size:6.70278px;line-height:1.25;font-family:sans-serif;fill:#000000;fill-opacity:1;stroke:none;stroke-width:0.264583">
      <path
         d="m 5.3853735,3.573856 q 0,0.1374593 -0.6414769,1.3484108 Q 4.3380642,5.6782932 3.9322318,6.4343196 3.8831392,6.529232 3.8242281,6.529232 H 3.1663869 q -0.04582,0 -0.09164,-0.094912 Q 3.0649288,6.4146826 2.295811,4.9680865 1.6379698,3.7276795 1.6379698,3.6131301 q 0,-0.2585545 0.016364,-0.7756635 0.019637,-0.5203818 0.019637,-0.7789363 0,-0.1210952 0.078548,-0.1210952 0.062184,0 0.1800063,0.00982 0.1210951,0.00982 0.1832791,0.00982 0.058911,0 0.1800063,-0.00982 0.1210951,-0.00982 0.1800063,-0.00982 0.075275,0 0.075275,0.062184 0,0.2651002 -0.036001,0.7985734 -0.032728,0.5334732 -0.032728,0.8018462 0,0.2225533 1.0145809,1.9833421 0.268373,-0.4581979 0.5825658,-1.0505822 0.454925,-0.8574845 0.454925,-1.0080352 0,-0.2552817 -0.016364,-0.7625722 -0.016364,-0.5072904 -0.016364,-0.7592992 0,-0.065457 0.072002,-0.065457 0.062184,0 0.1832791,0.00982 0.1210952,0.00982 0.1800063,0.00982 0.058911,0 0.1767335,-0.00982 0.1210951,-0.00982 0.1800063,-0.00982 0.072002,0 0.081821,0.062184 -0.00327,-0.02291 -0.00327,0.124368 0,0.2421903 0.00655,0.7265709 0.00655,0.4811077 0.00655,0.723298 z"
         style="font-style:normal;font-variant:normal;font-weight:normal;font-stretch:normal;font-size:6.70278px;font-family:'Berlin Sans FB';-inkscape-font-specification:'Berlin Sans FB';stroke-width:0.264583"
         id="path910" />
      <path
         d="m 6.8286969,6.4605023 q 0,0.06873 -0.094912,0.06873 -0.058911,0 -0.1800062,-0.00982 -0.1210952,-0.00982 -0.1800063,-0.00982 -0.062184,0 -0.1832792,0.00982 -0.1210951,0.00982 -0.1800063,0.00982 -0.081821,0 -0.081821,-0.075275 0,-0.373104 0.032728,-1.1225847 0.036001,-0.7527536 0.036001,-1.1291304 0,-0.3632854 -0.036001,-1.0898563 -0.032728,-0.7298437 -0.032728,-1.0931291 0,-0.081821 0.075275,-0.081821 0.062184,0 0.1898248,0.00982 0.1276408,0.00982 0.1930976,0.00982 0.058911,0 0.1767335,-0.00982 0.1178223,-0.00982 0.1767334,-0.00982 0.085094,0 0.085094,0.065457 0,0.3665582 -0.026183,1.0996748 -0.026183,0.7331165 -0.026183,1.0996748 0,0.3763768 0.026183,1.1291304 0.029456,0.7527536 0.029456,1.1291303 z"
         style="font-style:normal;font-variant:normal;font-weight:normal;font-stretch:normal;font-size:6.70278px;font-family:'Berlin Sans FB';-inkscape-font-specification:'Berlin Sans FB';stroke-width:0.264583"
         id="path912" />
    </g>
  </g>
</svg>
