<?xml version="1.0" encoding="UTF-8" standalone="no"?>
<svg
   xmlns:osb="http://www.openswatchbook.org/uri/2009/osb"
   xmlns:dc="http://purl.org/dc/elements/1.1/"
   xmlns:cc="http://creativecommons.org/ns#"
   xmlns:rdf="http://www.w3.org/1999/02/22-rdf-syntax-ns#"
   xmlns:svg="http://www.w3.org/2000/svg"
   xmlns="http://www.w3.org/2000/svg"
   xmlns:sodipodi="http://sodipodi.sourceforge.net/DTD/sodipodi-0.dtd"
   xmlns:inkscape="http://www.inkscape.org/namespaces/inkscape"
   width="32"
   height="32"
   viewBox="0 0 8.4666667 8.4666667"
   version="1.1"
   id="svg8"
   inkscape:version="1.0.1 (3bc2e813f5, 2020-09-07)"
   sodipodi:docname="2.svg">
  <defs
     id="defs2">
    <linearGradient
       id="linearGradient3523"
       osb:paint="solid">
      <stop
         style="stop-color:#000000;stop-opacity:1;"
         offset="0"
         id="stop3521" />
    </linearGradient>
    <linearGradient
       id="linearGradient864"
       osb:paint="solid">
      <stop
         style="stop-color:#000000;stop-opacity:1;"
         offset="0"
         id="stop862" />
    </linearGradient>
  </defs>
  <sodipodi:namedview
     id="base"
     pagecolor="#ffffff"
     bordercolor="#666666"
     borderopacity="1.0"
     inkscape:pageopacity="0.0"
     inkscape:pageshadow="2"
     inkscape:zoom="11.313708"
     inkscape:cx="18.953398"
     inkscape:cy="15.035218"
     inkscape:document-units="px"
     inkscape:current-layer="layer1"
     inkscape:document-rotation="0"
     showgrid="false"
     units="px"
     inkscape:window-width="1600"
     inkscape:window-height="837"
     inkscape:window-x="-8"
     inkscape:window-y="-8"
     inkscape:window-maximized="1" />
  <metadata
     id="metadata5">
    <rdf:RDF>
      <cc:Work
         rdf:about="">
        <dc:format>image/svg+xml</dc:format>
        <dc:type
           rdf:resource="http://purl.org/dc/dcmitype/StillImage" />
        <dc:title></dc:title>
      </cc:Work>
    </rdf:RDF>
  </metadata>
  <g
     inkscape:label="Слой 1"
     inkscape:groupmode="layer"
     id="layer1">
    <rect
       style="opacity:0.975;fill:#ccdde4;fill-opacity:1;stroke:#000000;stroke-width:0.132292;stroke-linecap:round;stroke-linejoin:bevel;stroke-miterlimit:4;stroke-dasharray:none;stroke-dashoffset:0;stroke-opacity:0.980392;image-rendering:auto"
       id="rect1510"
       width="7.9375"
       height="7.9375"
       x="0.26458335"
       y="0.26458335"
       rx="0.79374999"
       ry="0.79374999" />
    <g
       aria-label="2"
       id="text6465"
       style="font-style:normal;font-weight:normal;font-size:10.5833px;line-height:1.25;font-family:sans-serif;fill:#000000;fill-opacity:1;stroke:none;stroke-width:0.264583">
      <path
         d="m 6.0428693,5.8306516 q 0,0.1098986 -0.011369,0.3410644 -0.011369,0.2273763 -0.011369,0.3410644 0,0.083371 -0.1250569,0.083371 0.041686,0 -0.3600124,-0.030317 -0.3979085,-0.030317 -1.1861462,-0.030317 -0.2690619,0 -0.814765,0.011369 -0.5419134,0.011369 -0.8147649,0.011369 -0.087161,0 -0.1098985,-0.075792 l -0.09853,-0.545703 q 0,-0.045475 0.2652723,-0.090951 0.2955892,-0.053054 0.3713813,-0.1174777 0.526755,-0.4585421 1.034562,-1.0838268 0.6556015,-0.814765 0.6556015,-1.2354111 0,-0.344854 -0.2804307,-0.5684406 -0.2614827,-0.2084283 -0.6101263,-0.2084283 -0.3372748,0 -0.6745496,0.1326362 -0.2311658,0.09095 -0.4623317,0.2425346 -0.1970594,0.1326362 -0.1970594,0.1326362 -0.030317,0 -0.041686,-0.00379 Q 2.5336957,3.1172949 2.5261165,3.0036067 2.5223269,2.9126562 2.5033788,2.742124 2.4237971,2.39727 2.4237971,2.4616933 q 0,-0.030317 0.056844,-0.072002 Q 2.7838096,2.158525 3.2612997,2.0107304 3.7198418,1.870515 4.1253295,1.870515 q 0.6972872,0 1.1482502,0.325906 0.5115965,0.3675916 0.5115965,1.0421412 0,0.7351833 -1.3339407,2.0615448 -0.1477946,0.1743218 -0.4661213,0.4964382 0.09853,0.00758 0.2463242,0.00758 0.7427625,0 1.7015324,-0.09095 l 0.030317,-0.00379 q 0.079582,0 0.079582,0.1212673 z"
         style="font-style:normal;font-variant:normal;font-weight:normal;font-stretch:normal;font-size:7.76111px;font-family:'Berlin Sans FB';-inkscape-font-specification:'Berlin Sans FB';stroke-width:0.264583"
         id="path6470" />
    </g>
  </g>
</svg>
