<?xml version="1.0" encoding="UTF-8" standalone="no"?>
<svg
   xmlns:osb="http://www.openswatchbook.org/uri/2009/osb"
   xmlns:dc="http://purl.org/dc/elements/1.1/"
   xmlns:cc="http://creativecommons.org/ns#"
   xmlns:rdf="http://www.w3.org/1999/02/22-rdf-syntax-ns#"
   xmlns:svg="http://www.w3.org/2000/svg"
   xmlns="http://www.w3.org/2000/svg"
   xmlns:sodipodi="http://sodipodi.sourceforge.net/DTD/sodipodi-0.dtd"
   xmlns:inkscape="http://www.inkscape.org/namespaces/inkscape"
   width="32"
   height="32"
   viewBox="0 0 8.4666667 8.4666667"
   version="1.1"
   id="svg8"
   inkscape:version="1.0.1 (3bc2e813f5, 2020-09-07)"
   sodipodi:docname="2.svg">
  <defs
     id="defs2">
    <linearGradient
       id="linearGradient3523"
       osb:paint="solid">
      <stop
         style="stop-color:#000000;stop-opacity:1;"
         offset="0"
         id="stop3521" />
    </linearGradient>
    <linearGradient
       id="linearGradient864"
       osb:paint="solid">
      <stop
         style="stop-color:#000000;stop-opacity:1;"
         offset="0"
         id="stop862" />
    </linearGradient>
  </defs>
  <sodipodi:namedview
     id="base"
     pagecolor="#ffffff"
     bordercolor="#666666"
     borderopacity="1.0"
     inkscape:pageopacity="0.0"
     inkscape:pageshadow="2"
     inkscape:zoom="20.9375"
     inkscape:cx="16"
     inkscape:cy="16"
     inkscape:document-units="px"
     inkscape:current-layer="layer1"
     inkscape:document-rotation="0"
     showgrid="false"
     units="px"
     inkscape:window-width="1500"
     inkscape:window-height="860"
     inkscape:window-x="78"
     inkscape:window-y="0"
     inkscape:window-maximized="0" />
  <metadata
     id="metadata5">
    <rdf:RDF>
      <cc:Work
         rdf:about="">
        <dc:format>image/svg+xml</dc:format>
        <dc:type
           rdf:resource="http://purl.org/dc/dcmitype/StillImage" />
        <dc:title></dc:title>
      </cc:Work>
    </rdf:RDF>
  </metadata>
  <g
     inkscape:label="Слой 1"
     inkscape:groupmode="layer"
     id="layer1">
    <rect
       style="opacity:0.975;fill:#ccdde4;fill-opacity:1;stroke:#000000;stroke-width:0.132292;stroke-linecap:round;stroke-linejoin:bevel;stroke-miterlimit:4;stroke-dasharray:none;stroke-dashoffset:0;stroke-opacity:0.980392;image-rendering:auto"
       id="rect1510"
       width="7.9375"
       height="7.9375"
       x="0.26458335"
       y="0.26458335"
       rx="0.79374999"
       ry="0.79374999" />
    <g
       aria-label="B"
       id="text3533"
       style="font-style:normal;font-weight:normal;font-size:7.76111px;line-height:1.25;font-family:sans-serif;fill:#000000;fill-opacity:1;stroke:none;stroke-width:0.264583">
      <path
         d="m 6.2797197,5.2546317 q 0,0.6593912 -0.3979085,1.1330917 -0.420646,0.4964382 -1.0686684,0.4964382 -0.2425347,0 -0.7313937,-0.011369 -0.4850693,-0.011369 -0.727604,-0.011369 -0.1781114,0 -0.5381238,0.015158 -0.3562228,0.015158 -0.5343342,0.015158 -0.09474,0 -0.09474,-0.087161 0,-0.4168565 0.037896,-1.2505695 0.041686,-0.8375025 0.041686,-1.254359 0,-0.4395941 -0.041686,-1.3187824 -0.037896,-0.8829778 -0.037896,-1.3225719 0,-0.083371 0.09474,-0.083371 0.3372747,0 1.0156139,0.00379 0.6783392,0.00379 1.0194036,0.00379 0.7958169,0 1.2695175,0.2955892 0.5760199,0.3600124 0.5760199,1.1179333 0,0.2614827 -0.1515842,0.545703 -0.1515842,0.2804307 -0.3675916,0.4244357 -0.1098986,0.072002 -0.1098986,0.09474 0,0.022738 0.1098986,0.083371 0.2880099,0.1591634 0.4623317,0.4699109 0.1743218,0.306958 0.1743218,0.6404432 z M 5.2148409,3.0793988 q 0,-0.5343343 -0.4774902,-0.7200249 -0.2880099,-0.1098985 -0.9436115,-0.1098985 -0.6366535,0 -0.6366535,0.09474 0,0.125057 -0.011369,0.3751708 -0.011369,0.2501139 -0.011369,0.3789605 0,0.087161 0.00379,0.2690619 0.00379,0.181901 0.00379,0.2728515 0,0.1098985 0.8564505,0.1098985 1.2164631,0 1.2164631,-0.6707599 z m 0.1023193,2.1373369 q 0,-0.4623318 -0.4130669,-0.6252848 Q 4.6426106,4.485342 4.0893284,4.485342 q -0.9549804,0 -0.9549804,0.1023193 v 0.6214951 q 0,0.1364258 0.00758,0.4168565 0.00758,0.2804308 0.00758,0.4206461 0,0.037896 0.2425346,0.056844 0.2425347,0.018948 0.7200249,0.018948 0.5987575,0 0.8602402,-0.1553738 0.344854,-0.2046386 0.344854,-0.7503416 z"
         style="font-style:normal;font-variant:normal;font-weight:normal;font-stretch:normal;font-size:7.76111px;font-family:'Berlin Sans FB';-inkscape-font-specification:'Berlin Sans FB';stroke-width:0.264583"
         id="path5875" />
    </g>
  </g>
</svg>
