<?xml version="1.0" encoding="UTF-8" standalone="no"?>
<svg
   xmlns:osb="http://www.openswatchbook.org/uri/2009/osb"
   xmlns:dc="http://purl.org/dc/elements/1.1/"
   xmlns:cc="http://creativecommons.org/ns#"
   xmlns:rdf="http://www.w3.org/1999/02/22-rdf-syntax-ns#"
   xmlns:svg="http://www.w3.org/2000/svg"
   xmlns="http://www.w3.org/2000/svg"
   xmlns:sodipodi="http://sodipodi.sourceforge.net/DTD/sodipodi-0.dtd"
   xmlns:inkscape="http://www.inkscape.org/namespaces/inkscape"
   width="32"
   height="32"
   viewBox="0 0 8.4666667 8.4666667"
   version="1.1"
   id="svg8"
   inkscape:version="1.0.1 (3bc2e813f5, 2020-09-07)"
   sodipodi:docname="5.svg">
  <defs
     id="defs2">
    <linearGradient
       id="linearGradient3523"
       osb:paint="solid">
      <stop
         style="stop-color:#000000;stop-opacity:1;"
         offset="0"
         id="stop3521" />
    </linearGradient>
    <linearGradient
       id="linearGradient864"
       osb:paint="solid">
      <stop
         style="stop-color:#000000;stop-opacity:1;"
         offset="0"
         id="stop862" />
    </linearGradient>
  </defs>
  <sodipodi:namedview
     id="base"
     pagecolor="#ffffff"
     bordercolor="#666666"
     borderopacity="1.0"
     inkscape:pageopacity="0.0"
     inkscape:pageshadow="2"
     inkscape:zoom="11.313708"
     inkscape:cx="18.953398"
     inkscape:cy="17.189533"
     inkscape:document-units="px"
     inkscape:current-layer="layer1"
     inkscape:document-rotation="0"
     showgrid="false"
     units="px"
     inkscape:window-width="1600"
     inkscape:window-height="837"
     inkscape:window-x="-8"
     inkscape:window-y="-8"
     inkscape:window-maximized="1" />
  <metadata
     id="metadata5">
    <rdf:RDF>
      <cc:Work
         rdf:about="">
        <dc:format>image/svg+xml</dc:format>
        <dc:type
           rdf:resource="http://purl.org/dc/dcmitype/StillImage" />
        <dc:title></dc:title>
      </cc:Work>
    </rdf:RDF>
  </metadata>
  <g
     inkscape:label="Слой 1"
     inkscape:groupmode="layer"
     id="layer1">
    <rect
       style="opacity:0.975;fill:#ccdde4;fill-opacity:1;stroke:#000000;stroke-width:0.132292;stroke-linecap:round;stroke-linejoin:bevel;stroke-miterlimit:4;stroke-dasharray:none;stroke-dashoffset:0;stroke-opacity:0.980392;image-rendering:auto"
       id="rect1510"
       width="7.9375"
       height="7.9375"
       x="0.26458335"
       y="0.26458335"
       rx="0.79374999"
       ry="0.79374999" />
    <g
       aria-label="E"
       id="text856"
       style="font-style:normal;font-weight:normal;font-size:10.5833px;line-height:1.25;font-family:sans-serif;fill:#000000;fill-opacity:1;stroke:none;stroke-width:0.264583">
      <path
         d="m 5.8714774,5.933489 q 0,0.055122 -0.027561,0.1584745 -0.031006,0.1309137 -0.037896,0.1584745 -0.010335,0.1240235 -0.048231,0.3617353 -0.017226,0.062012 -0.089573,0.062012 -0.034451,0 -0.1309138,-0.01378 -0.423747,-0.062012 -1.3125822,-0.062012 -0.2514921,0 -0.7579215,0.01378 -0.5064293,0.01378 -0.7579215,0.01378 -0.1136882,0 -0.1136882,-0.099908 0,-0.3858509 0.041341,-1.1575528 0.044786,-0.775147 0.044786,-1.1609979 0,-0.3927412 -0.041341,-1.4641665 -0.00689,-0.2756079 -0.037896,-0.8233784 l -0.00345,-0.048231 q -0.00345,-0.079237 0.089573,-0.079237 0.2411569,0 0.7234706,0.01378 0.4823136,0.01378 0.7234705,0.01378 0.2308215,0 0.6890195,-0.01378 0.4616431,-0.01378 0.6924647,-0.01378 0.1619196,0 0.1756999,0.099908 0.072347,0.4547529 0.072347,0.564996 0,0.079237 -0.075792,0.079237 -0.2928333,0 -0.8888352,-0.031006 -0.5925568,-0.034451 -0.8922803,-0.034451 -0.282498,0 -0.3582901,0.075792 -0.072347,0.075792 -0.072347,0.3755156 v 0.5133196 q 0,0.210151 0.010335,0.2446019 0.031006,0.1067981 0.1791451,0.1067981 0.041341,0 0.1171333,-0.00345 0.079237,0 0.1171333,0 0.6752392,0 1.2126744,-0.024116 0.210151,-0.00689 0.4960941,-0.034451 0.072347,-0.00689 0.072347,0.062012 0,0.1102431 -0.027561,0.3376195 -0.024116,0.2273765 -0.024116,0.3410647 0,0.062012 -0.1033529,0.062012 -0.041341,0 -0.3066137,-0.024116 -0.1929255,-0.020671 -0.8681647,-0.020671 -0.5684411,0 -0.7200254,0.01378 -0.1378039,0.010335 -0.1584745,0.1446941 0.00345,-0.024116 0.00345,0.2652725 v 0.5098745 q 0,0.3582901 0.1102431,0.4478627 0.086127,0.072347 0.4306373,0.072347 l 0.3789607,-0.00345 q 0.2411568,0 1.3539234,-0.082682 l 0.051676,-0.00345 q 0.068902,-0.00689 0.068902,0.086127 z"
         style="font-style:normal;font-variant:normal;font-weight:normal;font-stretch:normal;font-size:7.05556px;font-family:'Berlin Sans FB';-inkscape-font-specification:'Berlin Sans FB';stroke-width:0.264583"
         id="path867" />
    </g>
  </g>
</svg>
