<?xml version="1.0" encoding="UTF-8" standalone="no"?>
<svg
   xmlns:osb="http://www.openswatchbook.org/uri/2009/osb"
   xmlns:dc="http://purl.org/dc/elements/1.1/"
   xmlns:cc="http://creativecommons.org/ns#"
   xmlns:rdf="http://www.w3.org/1999/02/22-rdf-syntax-ns#"
   xmlns:svg="http://www.w3.org/2000/svg"
   xmlns="http://www.w3.org/2000/svg"
   xmlns:sodipodi="http://sodipodi.sourceforge.net/DTD/sodipodi-0.dtd"
   xmlns:inkscape="http://www.inkscape.org/namespaces/inkscape"
   width="32"
   height="32"
   viewBox="0 0 8.4666667 8.4666667"
   version="1.1"
   id="svg8"
   inkscape:version="1.0.1 (3bc2e813f5, 2020-09-07)"
   sodipodi:docname="5.svg">
  <defs
     id="defs2">
    <linearGradient
       id="linearGradient3523"
       osb:paint="solid">
      <stop
         style="stop-color:#000000;stop-opacity:1;"
         offset="0"
         id="stop3521" />
    </linearGradient>
    <linearGradient
       id="linearGradient864"
       osb:paint="solid">
      <stop
         style="stop-color:#000000;stop-opacity:1;"
         offset="0"
         id="stop862" />
    </linearGradient>
  </defs>
  <sodipodi:namedview
     id="base"
     pagecolor="#ffffff"
     bordercolor="#666666"
     borderopacity="1.0"
     inkscape:pageopacity="0.0"
     inkscape:pageshadow="2"
     inkscape:zoom="5.6568542"
     inkscape:cx="20.068614"
     inkscape:cy="18.665202"
     inkscape:document-units="px"
     inkscape:current-layer="layer1"
     inkscape:document-rotation="0"
     showgrid="false"
     units="px"
     inkscape:window-width="1500"
     inkscape:window-height="860"
     inkscape:window-x="78"
     inkscape:window-y="0"
     inkscape:window-maximized="0" />
  <metadata
     id="metadata5">
    <rdf:RDF>
      <cc:Work
         rdf:about="">
        <dc:format>image/svg+xml</dc:format>
        <dc:type
           rdf:resource="http://purl.org/dc/dcmitype/StillImage" />
        <dc:title></dc:title>
      </cc:Work>
    </rdf:RDF>
  </metadata>
  <g
     inkscape:label="Слой 1"
     inkscape:groupmode="layer"
     id="layer1">
    <rect
       style="opacity:0.975;fill:#ccdde4;fill-opacity:1;stroke:#000000;stroke-width:0.132292;stroke-linecap:round;stroke-linejoin:bevel;stroke-miterlimit:4;stroke-dasharray:none;stroke-dashoffset:0;stroke-opacity:0.980392;image-rendering:auto"
       id="rect1510"
       width="7.9375"
       height="7.9375"
       x="0.26458335"
       y="0.26458335"
       rx="0.79374999"
       ry="0.79374999" />
    <g
       aria-label="E"
       id="text3533"
       style="font-style:normal;font-weight:normal;font-size:7.76111px;line-height:1.25;font-family:sans-serif;fill:#000000;fill-opacity:1;stroke:none;stroke-width:0.264583">
      <path
         d="m 6.0352903,6.1035029 q 0,0.060634 -0.030317,0.1743218 -0.034107,0.144005 -0.041686,0.1743218 -0.011369,0.1364258 -0.053054,0.3979085 -0.018948,0.068213 -0.09853,0.068213 -0.037896,0 -0.144005,-0.015159 -0.4661214,-0.068213 -1.4438393,-0.068213 -0.2766411,0 -0.833713,0.015158 -0.5570718,0.015158 -0.8337129,0.015158 -0.125057,0 -0.125057,-0.1098985 0,-0.4244357 0.045475,-1.2733071 0.049265,-0.852661 0.049265,-1.2770967 0,-0.4320149 -0.045475,-1.6105819 -0.00758,-0.3031683 -0.041686,-0.9057154 l -0.00379,-0.053055 q -0.00379,-0.087161 0.09853,-0.087161 0.2652724,0 0.795817,0.015158 0.5305446,0.015158 0.7958169,0.015158 0.2539035,0 0.7579209,-0.015158 0.507807,-0.015158 0.7617105,-0.015158 0.1781114,0 0.1932698,0.1098985 0.079582,0.5002278 0.079582,0.6214952 0,0.087161 -0.083371,0.087161 -0.3221164,0 -0.977718,-0.034107 -0.6518119,-0.037896 -0.9815075,-0.037896 -0.3107476,0 -0.3941189,0.083371 -0.079582,0.083371 -0.079582,0.4130669 v 0.564651 q 0,0.2311659 0.011369,0.2690619 0.034106,0.1174778 0.1970594,0.1174778 0.045475,0 0.1288465,-0.00379 0.087161,0 0.1288466,0 0.7427625,0 1.3339407,-0.026527 0.2311659,-0.00758 0.5457031,-0.037896 0.079582,-0.00758 0.079582,0.068213 0,0.1212673 -0.030317,0.3713812 -0.026527,0.2501139 -0.026527,0.3751708 0,0.068213 -0.1136881,0.068213 -0.045475,0 -0.3372748,-0.026527 -0.2122179,-0.022738 -0.9549803,-0.022738 -0.6252848,0 -0.7920273,0.015158 -0.1515842,0.011369 -0.1743218,0.1591634 0.00379,-0.026527 0.00379,0.2917995 v 0.5608614 q 0,0.3941189 0.1212673,0.4926486 0.09474,0.079582 0.4737005,0.079582 l 0.4168565,-0.00379 q 0.2652723,0 1.4893146,-0.09095 l 0.056844,-0.00379 q 0.075792,-0.00758 0.075792,0.09474 z"
         style="font-style:normal;font-variant:normal;font-weight:normal;font-stretch:normal;font-size:7.76111px;font-family:'Berlin Sans FB';-inkscape-font-specification:'Berlin Sans FB';stroke-width:0.264583"
         id="path4120" />
    </g>
  </g>
</svg>
