<?xml version="1.0" encoding="UTF-8" standalone="no"?>
<svg
   xmlns:osb="http://www.openswatchbook.org/uri/2009/osb"
   xmlns:dc="http://purl.org/dc/elements/1.1/"
   xmlns:cc="http://creativecommons.org/ns#"
   xmlns:rdf="http://www.w3.org/1999/02/22-rdf-syntax-ns#"
   xmlns:svg="http://www.w3.org/2000/svg"
   xmlns="http://www.w3.org/2000/svg"
   xmlns:sodipodi="http://sodipodi.sourceforge.net/DTD/sodipodi-0.dtd"
   xmlns:inkscape="http://www.inkscape.org/namespaces/inkscape"
   width="32"
   height="32"
   viewBox="0 0 8.4666667 8.4666667"
   version="1.1"
   id="svg8"
   inkscape:version="1.0.1 (3bc2e813f5, 2020-09-07)"
   sodipodi:docname="6.svg">
  <defs
     id="defs2">
    <linearGradient
       id="linearGradient3523"
       osb:paint="solid">
      <stop
         style="stop-color:#000000;stop-opacity:1;"
         offset="0"
         id="stop3521" />
    </linearGradient>
    <linearGradient
       id="linearGradient864"
       osb:paint="solid">
      <stop
         style="stop-color:#000000;stop-opacity:1;"
         offset="0"
         id="stop862" />
    </linearGradient>
  </defs>
  <sodipodi:namedview
     id="base"
     pagecolor="#ffffff"
     bordercolor="#666666"
     borderopacity="1.0"
     inkscape:pageopacity="0.0"
     inkscape:pageshadow="2"
     inkscape:zoom="7.4025241"
     inkscape:cx="28.122466"
     inkscape:cy="19.576066"
     inkscape:document-units="px"
     inkscape:current-layer="layer1"
     inkscape:document-rotation="0"
     showgrid="false"
     units="px"
     inkscape:window-width="1500"
     inkscape:window-height="860"
     inkscape:window-x="78"
     inkscape:window-y="0"
     inkscape:window-maximized="0" />
  <metadata
     id="metadata5">
    <rdf:RDF>
      <cc:Work
         rdf:about="">
        <dc:format>image/svg+xml</dc:format>
        <dc:type
           rdf:resource="http://purl.org/dc/dcmitype/StillImage" />
        <dc:title></dc:title>
      </cc:Work>
    </rdf:RDF>
  </metadata>
  <g
     inkscape:label="Слой 1"
     inkscape:groupmode="layer"
     id="layer1">
    <rect
       style="opacity:0.975;fill:#ccdde4;fill-opacity:1;stroke:#000000;stroke-width:0.132292;stroke-linecap:round;stroke-linejoin:bevel;stroke-miterlimit:4;stroke-dasharray:none;stroke-dashoffset:0;stroke-opacity:0.980392;image-rendering:auto"
       id="rect1510"
       width="7.9375"
       height="7.9375"
       x="0.26458335"
       y="0.26458335"
       rx="0.79374999"
       ry="0.79374999" />
    <g
       aria-label="F"
       id="text3533"
       style="font-style:normal;font-weight:normal;font-size:7.76111px;line-height:1.25;font-family:sans-serif;fill:#000000;fill-opacity:1;stroke:none;stroke-width:0.264583">
      <path
         d="m 6.058098,2.3654957 q 0,0.072002 -0.079582,0.072002 -0.2955892,0 -0.9701388,-0.034107 -0.6290743,-0.030317 -0.9701387,-0.022738 l -0.2766411,0.00379 Q 3.4963255,2.3882333 3.481167,2.3958125 3.405375,2.4261293 3.405375,2.6345576 v 0.9132947 q 0,0.2576931 0.1098985,0.2576931 0.3675916,0 1.1065645,-0.034107 0.7427624,-0.034106 1.1103541,-0.034106 0.079582,0 0.079582,0.060634 0,0.064423 -0.011369,0.1932699 -0.00758,0.1250569 -0.00758,0.1894802 0,0.068213 0.00758,0.2084282 0.00758,0.1364258 0.00758,0.2046387 0,0.045475 -0.079582,0.045475 -0.2614827,0 -0.795817,-0.015158 -0.5305446,-0.015158 -0.7958169,-0.015158 -0.488859,0 -0.5532822,0.00758 -0.1705322,0.018948 -0.1705322,0.1402154 0,0.3410644 0.018948,1.0231932 0.018948,0.6821287 0.018948,1.0231931 0,0.1136882 -0.09095,0.1136882 -0.075792,0 -0.2273763,-0.015158 -0.1477945,-0.018948 -0.2273762,-0.018948 -0.064423,0 -0.1970595,0.011369 -0.1326361,0.011369 -0.1970594,0.011369 -0.09474,0 -0.09474,-0.083371 0,-0.4206461 0.034106,-1.2657279 0.037896,-0.8450818 0.037896,-1.2657279 0,-0.3903292 -0.079582,-2.5390349 v -0.049265 q -0.00379,-0.079582 0.09474,-0.09095 0.030317,0 0.4812798,0.011369 0.5949679,0.011369 1.1027749,0.00379 0.6859184,-0.00758 1.7470076,-0.075792 0.144005,-0.011369 0.162953,0.125057 -0.00379,0.1023193 0.015158,0.3107475 0.045475,0.2917996 0.045475,0.3789605 z"
         style="font-style:normal;font-variant:normal;font-weight:normal;font-stretch:normal;font-size:7.76111px;font-family:'Berlin Sans FB';-inkscape-font-specification:'Berlin Sans FB';stroke-width:0.264583"
         id="path3535" />
    </g>
  </g>
</svg>
