<?xml version="1.0" encoding="UTF-8" standalone="no"?>
<svg
   xmlns:osb="http://www.openswatchbook.org/uri/2009/osb"
   xmlns:dc="http://purl.org/dc/elements/1.1/"
   xmlns:cc="http://creativecommons.org/ns#"
   xmlns:rdf="http://www.w3.org/1999/02/22-rdf-syntax-ns#"
   xmlns:svg="http://www.w3.org/2000/svg"
   xmlns="http://www.w3.org/2000/svg"
   xmlns:sodipodi="http://sodipodi.sourceforge.net/DTD/sodipodi-0.dtd"
   xmlns:inkscape="http://www.inkscape.org/namespaces/inkscape"
   width="32"
   height="32"
   viewBox="0 0 8.4666667 8.4666667"
   version="1.1"
   id="svg8"
   inkscape:version="1.0.1 (3bc2e813f5, 2020-09-07)"
   sodipodi:docname="3.svg">
  <defs
     id="defs2">
    <linearGradient
       id="linearGradient3523"
       osb:paint="solid">
      <stop
         style="stop-color:#000000;stop-opacity:1;"
         offset="0"
         id="stop3521" />
    </linearGradient>
    <linearGradient
       id="linearGradient864"
       osb:paint="solid">
      <stop
         style="stop-color:#000000;stop-opacity:1;"
         offset="0"
         id="stop862" />
    </linearGradient>
  </defs>
  <sodipodi:namedview
     id="base"
     pagecolor="#ffffff"
     bordercolor="#666666"
     borderopacity="1.0"
     inkscape:pageopacity="0.0"
     inkscape:pageshadow="2"
     inkscape:zoom="11.313708"
     inkscape:cx="18.953398"
     inkscape:cy="15.035218"
     inkscape:document-units="px"
     inkscape:current-layer="layer1"
     inkscape:document-rotation="0"
     showgrid="false"
     units="px"
     inkscape:window-width="1600"
     inkscape:window-height="837"
     inkscape:window-x="-8"
     inkscape:window-y="-8"
     inkscape:window-maximized="1" />
  <metadata
     id="metadata5">
    <rdf:RDF>
      <cc:Work
         rdf:about="">
        <dc:format>image/svg+xml</dc:format>
        <dc:type
           rdf:resource="http://purl.org/dc/dcmitype/StillImage" />
        <dc:title></dc:title>
      </cc:Work>
    </rdf:RDF>
  </metadata>
  <g
     inkscape:label="Слой 1"
     inkscape:groupmode="layer"
     id="layer1">
    <rect
       style="opacity:0.975;fill:#ccdde4;fill-opacity:1;stroke:#000000;stroke-width:0.132292;stroke-linecap:round;stroke-linejoin:bevel;stroke-miterlimit:4;stroke-dasharray:none;stroke-dashoffset:0;stroke-opacity:0.980392;image-rendering:auto"
       id="rect1510"
       width="7.9375"
       height="7.9375"
       x="0.26458335"
       y="0.26458335"
       rx="0.79374999"
       ry="0.79374999" />
    <g
       aria-label="3"
       id="text6465"
       style="font-style:normal;font-weight:normal;font-size:10.5833px;line-height:1.25;font-family:sans-serif;fill:#000000;fill-opacity:1;stroke:none;stroke-width:0.264583">
      <path
         d="m 5.8988644,5.214841 q 0,0.6972872 -0.5229654,1.0648788 -0.4585422,0.325906 -1.1823566,0.325906 -0.8602402,0 -1.5537378,-0.3183267 -0.072002,-0.034107 -0.072002,-0.068213 0,0.011369 0.181901,-0.5911783 0.022738,-0.083371 0.068213,-0.083371 0.6745496,0.344854 1.1103541,0.344854 1.034562,0 1.034562,-0.7503417 0,-0.4661213 -0.3562228,-0.6480223 -0.2539035,-0.1326362 -0.7617105,-0.1326362 -0.1061089,0 -0.2955892,0.00758 -0.1894802,0.00758 -0.2690619,0.00758 -0.219797,0 -0.219797,-0.09095 0,-0.5153862 0.1136881,-0.5153862 0.1667426,0 0.5002278,0.037896 0.3372748,0.037896 0.5040174,0.037896 0.2501139,0 0.4054876,-0.1667426 Q 4.743035,3.509519 4.743035,3.2594051 q 0,-0.6972872 -0.9057154,-0.6972872 -0.5305446,0 -0.9549803,0.2235867 -0.015159,0.00758 -0.037896,0.00758 -0.09474,0 -0.09474,-0.5646511 0,-0.1894802 0.6101263,-0.2955891 0.4206461,-0.072002 0.7617105,-0.072002 0.6328639,0 1.0800373,0.2766411 0.5343342,0.325906 0.5343342,0.9208739 0,0.306958 -0.1667426,0.6139159 -0.181901,0.325906 -0.4509629,0.4395941 0.7806585,0.2614827 0.7806585,1.1027749 z"
         style="font-style:normal;font-variant:normal;font-weight:normal;font-stretch:normal;font-size:7.76111px;font-family:'Berlin Sans FB';-inkscape-font-specification:'Berlin Sans FB';stroke-width:0.264583"
         id="path6473" />
    </g>
  </g>
</svg>
