<?xml version="1.0" encoding="UTF-8" standalone="no"?>
<svg
   xmlns:osb="http://www.openswatchbook.org/uri/2009/osb"
   xmlns:dc="http://purl.org/dc/elements/1.1/"
   xmlns:cc="http://creativecommons.org/ns#"
   xmlns:rdf="http://www.w3.org/1999/02/22-rdf-syntax-ns#"
   xmlns:svg="http://www.w3.org/2000/svg"
   xmlns="http://www.w3.org/2000/svg"
   xmlns:sodipodi="http://sodipodi.sourceforge.net/DTD/sodipodi-0.dtd"
   xmlns:inkscape="http://www.inkscape.org/namespaces/inkscape"
   width="32"
   height="32"
   viewBox="0 0 8.4666667 8.4666667"
   version="1.1"
   id="svg8"
   inkscape:version="1.0.1 (3bc2e813f5, 2020-09-07)"
   sodipodi:docname="4.svg">
  <defs
     id="defs2">
    <linearGradient
       id="linearGradient3523"
       osb:paint="solid">
      <stop
         style="stop-color:#000000;stop-opacity:1;"
         offset="0"
         id="stop3521" />
    </linearGradient>
    <linearGradient
       id="linearGradient864"
       osb:paint="solid">
      <stop
         style="stop-color:#000000;stop-opacity:1;"
         offset="0"
         id="stop862" />
    </linearGradient>
  </defs>
  <sodipodi:namedview
     id="base"
     pagecolor="#ffffff"
     bordercolor="#666666"
     borderopacity="1.0"
     inkscape:pageopacity="0.0"
     inkscape:pageshadow="2"
     inkscape:zoom="11.313708"
     inkscape:cx="18.953398"
     inkscape:cy="15.035218"
     inkscape:document-units="px"
     inkscape:current-layer="layer1"
     inkscape:document-rotation="0"
     showgrid="false"
     units="px"
     inkscape:window-width="1600"
     inkscape:window-height="837"
     inkscape:window-x="-8"
     inkscape:window-y="-8"
     inkscape:window-maximized="1" />
  <metadata
     id="metadata5">
    <rdf:RDF>
      <cc:Work
         rdf:about="">
        <dc:format>image/svg+xml</dc:format>
        <dc:type
           rdf:resource="http://purl.org/dc/dcmitype/StillImage" />
        <dc:title></dc:title>
      </cc:Work>
    </rdf:RDF>
  </metadata>
  <g
     inkscape:label="Слой 1"
     inkscape:groupmode="layer"
     id="layer1">
    <rect
       style="opacity:0.975;fill:#ccdde4;fill-opacity:1;stroke:#000000;stroke-width:0.132292;stroke-linecap:round;stroke-linejoin:bevel;stroke-miterlimit:4;stroke-dasharray:none;stroke-dashoffset:0;stroke-opacity:0.980392;image-rendering:auto"
       id="rect1510"
       width="7.9375"
       height="7.9375"
       x="0.26458335"
       y="0.26458335"
       rx="0.79374999"
       ry="0.79374999" />
    <g
       aria-label="4"
       id="text6465"
       style="font-style:normal;font-weight:normal;font-size:10.5833px;line-height:1.25;font-family:sans-serif;fill:#000000;fill-opacity:1;stroke:none;stroke-width:0.264583">
      <path
         d="m 6.0731862,5.5255883 q 0,0.072002 -0.083371,0.068213 -0.1364258,-0.00758 -0.3865397,-0.00758 -0.09095,0 -0.1061089,0.011369 -0.030317,0.018948 -0.030317,0.1061089 0,0.1326362 0.018948,0.4016981 0.022738,0.2652723 0.022738,0.3979085 0,0.083371 -0.09474,0.09853 -0.1288465,0.022738 -0.4433837,0.022738 -0.5305446,0 -0.5305446,-0.083371 0,-0.1098985 0.041686,-0.4168565 0.041686,-0.3069579 0.041686,-0.4509629 0,-0.087161 -0.064423,-0.087161 -0.3069579,0 -0.9208739,0.018948 -0.6101263,0.018948 -0.9170842,0.018948 -0.2273763,0 -0.2273763,-0.4661213 0,-0.3675916 0.072003,-0.4547525 Q 2.7269655,4.4038654 3.2158245,3.7861599 3.8259508,2.9297093 4.1632256,2.4181127 4.2693345,2.2513701 4.4891316,1.9216745 q 0.060634,-0.079582 0.1174777,-0.079582 0.2614827,0 0.7996065,0.1970595 0.1174778,0.041686 0.1174778,0.1402153 0,0.1932699 -0.030317,0.5835991 -0.026527,0.3865397 -0.026527,0.5798095 0,0.1743218 -0.00379,0.5987575 -0.00758,0.38275 -0.00379,0.5987575 v 0.3069579 q 0.09853,0 0.2880099,-0.015158 0.1932698,-0.015158 0.2880099,-0.015158 0.030317,0 0.030317,0.064423 0,0.1061089 0.00379,0.3221163 0.00379,0.2122179 0.00379,0.3221164 z M 4.6596637,2.8236004 q 0,-0.030317 -0.022738,-0.045475 -0.034106,0 -0.09853,0.1288466 -0.037896,0.083371 -0.079582,0.162953 -0.6556015,0.8791882 -1.3112031,1.7735348 0.018948,0.041686 0.3069579,0.041686 h 0.1553738 q 0.632864,0 0.9436115,-0.018948 0.00379,-0.4661214 0.011369,-0.9322427 0.015159,-0.5949679 0.064423,-0.9095051 0.030317,-0.181901 0.030317,-0.200849 z"
         style="font-style:normal;font-variant:normal;font-weight:normal;font-stretch:normal;font-size:7.76111px;font-family:'Berlin Sans FB';-inkscape-font-specification:'Berlin Sans FB';stroke-width:0.264583"
         id="path6476" />
    </g>
  </g>
</svg>
