<?xml version="1.0" encoding="UTF-8" standalone="no"?>
<svg
   xmlns:osb="http://www.openswatchbook.org/uri/2009/osb"
   xmlns:dc="http://purl.org/dc/elements/1.1/"
   xmlns:cc="http://creativecommons.org/ns#"
   xmlns:rdf="http://www.w3.org/1999/02/22-rdf-syntax-ns#"
   xmlns:svg="http://www.w3.org/2000/svg"
   xmlns="http://www.w3.org/2000/svg"
   xmlns:sodipodi="http://sodipodi.sourceforge.net/DTD/sodipodi-0.dtd"
   xmlns:inkscape="http://www.inkscape.org/namespaces/inkscape"
   width="32"
   height="32"
   viewBox="0 0 8.4666667 8.4666667"
   version="1.1"
   id="svg8"
   inkscape:version="1.0.1 (3bc2e813f5, 2020-09-07)"
   sodipodi:docname="5.svg">
  <defs
     id="defs2">
    <linearGradient
       id="linearGradient3523"
       osb:paint="solid">
      <stop
         style="stop-color:#000000;stop-opacity:1;"
         offset="0"
         id="stop3521" />
    </linearGradient>
    <linearGradient
       id="linearGradient864"
       osb:paint="solid">
      <stop
         style="stop-color:#000000;stop-opacity:1;"
         offset="0"
         id="stop862" />
    </linearGradient>
  </defs>
  <sodipodi:namedview
     id="base"
     pagecolor="#ffffff"
     bordercolor="#666666"
     borderopacity="1.0"
     inkscape:pageopacity="0.0"
     inkscape:pageshadow="2"
     inkscape:zoom="11.313708"
     inkscape:cx="18.953398"
     inkscape:cy="15.035218"
     inkscape:document-units="px"
     inkscape:current-layer="layer1"
     inkscape:document-rotation="0"
     showgrid="false"
     units="px"
     inkscape:window-width="1600"
     inkscape:window-height="837"
     inkscape:window-x="-8"
     inkscape:window-y="-8"
     inkscape:window-maximized="1" />
  <metadata
     id="metadata5">
    <rdf:RDF>
      <cc:Work
         rdf:about="">
        <dc:format>image/svg+xml</dc:format>
        <dc:type
           rdf:resource="http://purl.org/dc/dcmitype/StillImage" />
        <dc:title></dc:title>
      </cc:Work>
    </rdf:RDF>
  </metadata>
  <g
     inkscape:label="Слой 1"
     inkscape:groupmode="layer"
     id="layer1">
    <rect
       style="opacity:0.975;fill:#ccdde4;fill-opacity:1;stroke:#000000;stroke-width:0.132292;stroke-linecap:round;stroke-linejoin:bevel;stroke-miterlimit:4;stroke-dasharray:none;stroke-dashoffset:0;stroke-opacity:0.980392;image-rendering:auto"
       id="rect1510"
       width="7.9375"
       height="7.9375"
       x="0.26458335"
       y="0.26458335"
       rx="0.79374999"
       ry="0.79374999" />
    <g
       aria-label="5"
       id="text6465"
       style="font-style:normal;font-weight:normal;font-size:10.5833px;line-height:1.25;font-family:sans-serif;fill:#000000;fill-opacity:1;stroke:none;stroke-width:0.264583"
       transform="translate(0.0644234,-0.0795814)">
      <path
         d="m 5.8306515,5.0177813 q 0,0.8223442 -0.5343342,1.2467799 Q 4.8074583,6.65868 3.9661661,6.65868 3.6971042,6.65868 3.1665596,6.56015 2.5071684,6.438883 2.5071684,6.2986676 q 0,-0.1326361 0.056844,-0.4358045 0.064423,-0.3486436 0.1250569,-0.3486436 -0.053054,0 0.3372748,0.2084283 0.3941189,0.2046386 0.7389729,0.2046386 0.4737005,0 0.7692897,-0.1894802 0.3486436,-0.2273763 0.3486436,-0.67076 0,-0.7427625 -1.0914061,-0.7427625 -0.1440049,0 -0.4244357,0.041686 -0.2766411,0.041686 -0.3865396,0.041686 -0.083371,0 -0.1061089,-0.049265 Q 2.86718,4.3356527 2.86718,4.2901777 2.86339,4.2105957 2.87097,4.066591 2.87476,3.903638 2.87476,3.8430044 2.87476,3.5663632 2.86718,3.013081 2.8596,2.4560092 2.8596,2.179368 q 0,-0.053054 0.083371,-0.1288465 0.087161,-0.079582 0.1402154,-0.079582 0.1970594,0 0.5949679,0.018948 0.3979084,0.015158 0.5987575,0.015158 0.1894802,0 0.5722302,-0.018948 0.3865397,-0.018948 0.5798095,-0.018948 0.087161,0 0.087161,0.072002 0,0.079582 -0.037896,0.2917995 -0.034107,0.2122179 -0.034107,0.3221164 0,0.041686 -0.060634,0.087161 -0.056844,0.045475 -0.1023193,0.045475 -0.1970595,0 -0.5911783,-0.022738 -0.3903293,-0.022738 -0.5873887,-0.022738 -0.2804307,0 -0.4926486,0.011369 0,0.3107476 -0.037896,0.9549803 0.1136881,0 0.3410644,-0.026527 0.2311658,-0.026527 0.3486436,-0.026527 0.6972872,0 1.1103541,0.3221164 0.4585421,0.3600124 0.4585421,1.0421412 z"
         style="font-style:normal;font-variant:normal;font-weight:normal;font-stretch:normal;font-size:7.76111px;font-family:'Berlin Sans FB';-inkscape-font-specification:'Berlin Sans FB';stroke-width:0.264583"
         id="path6479" />
    </g>
  </g>
</svg>
