<?xml version="1.0" encoding="UTF-8" standalone="no"?>
<svg
   xmlns:dc="http://purl.org/dc/elements/1.1/"
   xmlns:cc="http://creativecommons.org/ns#"
   xmlns:rdf="http://www.w3.org/1999/02/22-rdf-syntax-ns#"
   xmlns:svg="http://www.w3.org/2000/svg"
   xmlns="http://www.w3.org/2000/svg"
   xmlns:sodipodi="http://sodipodi.sourceforge.net/DTD/sodipodi-0.dtd"
   xmlns:inkscape="http://www.inkscape.org/namespaces/inkscape"
   width="139.84251"
   height="98.267715"
   viewBox="0 0 37.000003 26.000002"
   version="1.1"
   id="svg8"
   inkscape:version="1.0.1 (3bc2e813f5, 2020-09-07)"
   sodipodi:docname="gtm003.svg">
  <defs
     id="defs2">
    <rect
       x="40.065475"
       y="27.214287"
       width="120.19643"
       height="50.648811"
       id="rect835" />
    <rect
       x="40.065475"
       y="27.214287"
       width="120.19643"
       height="50.648811"
       id="rect835-7" />
    <rect
       x="40.065475"
       y="27.214287"
       width="120.19643"
       height="50.648811"
       id="rect850" />
  </defs>
  <sodipodi:namedview
     id="base"
     pagecolor="#ffffff"
     bordercolor="#666666"
     borderopacity="1.0"
     inkscape:pageopacity="0.0"
     inkscape:pageshadow="2"
     inkscape:zoom="1.4"
     inkscape:cx="266.86889"
     inkscape:cy="77.914502"
     inkscape:document-units="mm"
     inkscape:current-layer="layer1"
     inkscape:document-rotation="0"
     showgrid="false"
     units="px"
     inkscape:window-width="1600"
     inkscape:window-height="837"
     inkscape:window-x="-8"
     inkscape:window-y="-8"
     inkscape:window-maximized="1" />
  <metadata
     id="metadata5">
    <rdf:RDF>
      <cc:Work
         rdf:about="">
        <dc:format>image/svg+xml</dc:format>
        <dc:type
           rdf:resource="http://purl.org/dc/dcmitype/StillImage" />
        <dc:title></dc:title>
      </cc:Work>
    </rdf:RDF>
  </metadata>
  <g
     inkscape:label="Слой 1"
     inkscape:groupmode="layer"
     id="layer1">
    <g
       aria-label="gtm003"
       transform="matrix(1.05288,0,0,1.5739987,-41.846816,-41.308522)"
       id="text833"
       style="font-style:normal;font-weight:normal;font-size:10.5833px;line-height:1.25;font-family:sans-serif;white-space:pre;shape-inside:url(#rect835);fill:#000000;fill-opacity:1;stroke:none;stroke-width:0.776798">
      <path
         d="m 44.045479,34.353675 v 0.02067 l -0.02067,-0.02067 q -0.03101,0.01033 -0.08268,0.01033 -0.09819,0.01033 -0.248046,0.01033 -0.263549,0 -0.263549,-0.09819 0,-0.05168 0.06718,-0.124023 0.19637,-0.222208 0.335896,-0.583942 0.144694,-0.361734 0.160197,-0.656288 0,-0.07235 0.01033,-0.129191 0.0052,-0.02067 0.0052,-0.03617 0.0052,-0.0155 0.0052,-0.02584 0,-0.07235 -0.09819,-0.07235 -0.201537,0 -0.620115,0.43408 -0.263549,0.279052 -0.496092,0.661457 -0.232543,0.382404 -0.361734,0.764808 -0.129191,0.382405 -0.129191,0.687295 0,0.299722 0.149861,0.299722 0.144694,0 0.728636,-0.485757 0.263549,-0.227375 0.857826,-0.656288 z m -0.263549,1.100704 -0.139526,0.103353 q -0.0155,0.0155 -0.05168,0.04134 -0.03101,0.02584 -0.08268,0.06718 -0.894,0.697629 -1.405595,0.981849 -0.506427,0.284219 -0.883664,0.284219 -0.418578,0 -0.676959,-0.30489 -0.253214,-0.30489 -0.253214,-0.816485 0,-0.635618 0.356566,-1.312577 0.361734,-0.682127 0.950844,-1.250566 0.589109,-0.568438 1.291906,-0.909502 0.702798,-0.346231 1.359086,-0.346231 0.645954,0 0.981849,0.222208 0.341064,0.222208 0.341064,0.666624 0,0.372069 -0.294555,0.919838 0.211873,0.0155 0.310058,0.134358 0.09819,0.113688 0.09819,0.361734 0,0.403075 -0.165365,1.126542 -0.165364,0.7183 -0.403074,1.32808 -0.289387,0.769977 -0.826821,1.338416 -0.408242,0.428913 -1.012855,0.733803 -0.604612,0.310057 -1.038693,0.310057 -0.361733,0 -0.645953,-0.289387 -0.284219,-0.289387 -0.284219,-0.651121 0,-0.242878 0.124023,-0.506427 0.124023,-0.258381 0.320393,-0.444416 0.403074,-0.408243 1.183386,-0.775144 0.144694,-0.07235 0.222208,-0.07235 0.03101,0 0.05684,0.02584 0.02584,0.02584 0.02584,0.05684 0,0.03617 -0.06201,0.139526 -0.155029,0.263549 -0.273885,0.671792 -0.118855,0.41341 -0.118855,0.713132 0,0.351399 0.10852,0.351399 0.05684,0 0.139526,-0.129191 0.08785,-0.124023 0.155029,-0.284219 0.439248,-1.116208 0.563271,-2.067051 0.0155,-0.139526 0.03101,-0.418578 z"
         style="font-style:normal;font-variant:normal;font-weight:bold;font-stretch:normal;font-family:Forte;-inkscape-font-specification:'Forte Bold';stroke-width:0.776798"
         id="path870" />
      <path
         d="m 47.135719,31.873214 0.02067,-0.06201 q 0.341063,-0.961178 0.589109,-1.353918 0.118856,-0.186035 0.330729,-0.330728 0.397907,-0.253214 0.749305,-0.253214 0.206705,0 0.315226,0.09302 0.10852,0.09302 0.10852,0.268717 0,0.118855 -0.155029,0.485757 -0.263549,0.60978 -0.39274,1.142046 0.08785,0.01034 0.170532,0.03101 0.310058,0.04651 0.408243,0.10852 0.09818,0.05684 0.09818,0.211873 0,0.273884 -0.139525,0.506428 -0.139526,0.232543 -0.366902,0.341063 -0.170532,0.07751 -0.552936,0.103352 -0.06718,0.201538 -0.149861,0.552937 -0.04651,0.310057 -0.103353,0.857826 -0.03101,0.201537 -0.03101,0.377236 0,0.816485 0.790646,0.816485 h 0.03101 0.0155 q 0.09302,0 0.09302,0.03101 0,0.08268 -0.175699,0.279052 -0.175699,0.19637 -0.387572,0.346231 -0.227376,0.155029 -0.496092,0.248046 -0.268717,0.09302 -0.485757,0.09302 -0.542601,0 -0.883664,-0.366901 -0.335896,-0.366902 -0.335896,-0.971514 0,-0.258381 0.08785,-0.676959 0.09302,-0.418578 0.284219,-1.121375 0.03101,-0.124023 0.06718,-0.258381 0.03617,-0.139526 0.04134,-0.165365 -0.206705,-0.0052 -0.294554,-0.08785 -0.08785,-0.08268 -0.08785,-0.268717 0,-0.32556 0.248046,-0.614947 0.253214,-0.289387 0.589109,-0.361734 z"
         style="font-style:normal;font-variant:normal;font-weight:bold;font-stretch:normal;font-family:Forte;-inkscape-font-specification:'Forte Bold';stroke-width:0.776798"
         id="path872" />
      <path
         d="m 55.434928,34.999628 -1.410762,1.446935 q -0.273884,0.273885 -0.444416,0.377237 -0.165364,0.09819 -0.366901,0.09819 -0.315226,0 -0.532266,-0.232543 -0.211873,-0.237711 -0.211873,-0.578774 0,-0.211873 0.06201,-0.459919 0.06718,-0.253214 0.258381,-0.749306 0.03617,-0.103352 0.06718,-0.175699 0.03617,-0.07751 0.05684,-0.129191 l -0.02067,-0.02067 q -0.50126,0.527098 -0.981849,1.111039 -0.403075,0.48059 -0.640786,0.7183 -0.237711,0.237711 -0.428913,0.356567 -0.191202,0.118855 -0.341063,0.118855 -0.335896,0 -0.532266,-0.263549 -0.19637,-0.263549 -0.19637,-0.7183 0,-0.573607 0.496092,-1.855178 0.444416,-1.136878 0.687295,-1.52445 0.356566,-0.537433 0.816485,-0.537433 0.279052,0 0.459919,0.134358 0.186034,0.129191 0.186034,0.341064 0,0.387572 -0.294555,1.183386 -0.113687,0.294555 -0.232543,0.666624 l 0.02067,0.02067 q 0.191202,-0.211872 0.614947,-0.728635 0.728636,-0.899167 1.100705,-1.224727 0.480589,-0.444416 0.878496,-0.444416 0.1757,0 0.335896,0.118855 0.160197,0.118855 0.253214,0.320393 0.09819,0.19637 0.09819,0.41341 0,0.222208 -0.320393,1.136878 -0.06718,0.191202 -0.103353,0.299722 -0.03617,0.10852 -0.06718,0.186035 l 0.02584,0.02067 q 0.07235,-0.07235 0.129191,-0.12919 0.05684,-0.05684 0.124023,-0.118856 0.07235,-0.06718 0.134358,-0.124023 0.139526,-0.134358 0.702798,-0.707965 0.372069,-0.41341 0.583941,-0.563271 0.211873,-0.155029 0.408243,-0.155029 0.320393,0 0.485757,0.222208 0.170532,0.217041 0.170532,0.645954 0,0.263549 -0.08268,0.831987 -0.07235,0.640786 -0.103353,1.007688 -0.02584,0.361734 -0.02584,0.506427 0,0.10852 0.01033,0.279052 0.0155,0.165364 0.04651,0.356566 0.03101,0.191202 0.08268,0.423746 0.06201,0.284219 0.08268,0.444416 -0.04134,0.186034 -0.273884,0.315225 -0.227376,0.12919 -0.496093,0.12919 -0.423745,0 -0.795814,-0.382404 -0.165364,-0.175699 -0.258381,-0.356566 -0.08785,-0.1757 -0.129191,-0.418578 -0.03617,-0.248046 -0.03617,-0.651121 0,-0.263549 0.06201,-1.090369 l -0.02067,-0.02067 z"
         style="font-style:normal;font-variant:normal;font-weight:bold;font-stretch:normal;font-family:Forte;-inkscape-font-specification:'Forte Bold';stroke-width:0.776798"
         id="path874" />
      <path
         d="m 62.039155,30.224741 h 0.05168 q 0.279052,0 0.532266,0.253214 0.258381,0.253213 0.408242,0.676959 0.149861,0.423745 0.149861,0.888831 0,0.470254 -0.134358,1.049029 -0.134358,0.573606 -0.361734,1.105872 -0.222208,0.532265 -0.542601,1.033525 -0.315225,0.50126 -0.656288,0.831988 -0.80615,0.816485 -1.648473,0.816485 -0.563272,0 -0.992185,-0.279052 -0.428913,-0.284219 -0.661456,-0.800982 -0.232543,-0.52193 -0.232543,-1.193722 0,-1.157548 0.480589,-2.216912 0.485757,-1.064531 1.281572,-1.720819 0.795814,-0.656289 1.638137,-0.656289 0.408243,0 0.687295,0.211873 z m -0.465087,0.242878 0.09302,-0.05168 -0.02067,-0.02067 q -0.330728,0.0052 -0.682127,0.335895 -0.346231,0.325561 -0.625282,0.842323 -0.279052,0.516763 -0.454752,1.167884 -0.175699,0.651121 -0.175699,1.229895 0,0.418578 0.144694,0.862994 0.149861,0.439248 0.372069,0.733803 0.227375,0.294555 0.43408,0.294555 0.160197,0 0.335896,-0.211873 0.1757,-0.21704 0.320393,-0.60978 0.149861,-0.377237 0.258381,-0.790647 0.108521,-0.41341 0.165364,-0.816485 0.05684,-0.403075 0.05684,-0.733803 0,-0.52193 -0.170531,-0.992184 -0.165364,-0.475422 -0.434081,-0.702798 -0.05168,-0.03617 -0.05168,-0.07235 0,-0.118856 0.43408,-0.465087 z"
         style="font-style:normal;font-variant:normal;font-weight:bold;font-stretch:normal;font-family:Forte;-inkscape-font-specification:'Forte Bold';stroke-width:0.776798"
         id="path876" />
      <path
         d="m 67.656365,30.224741 h 0.05168 q 0.279052,0 0.532266,0.253214 0.258381,0.253213 0.408243,0.676959 0.149861,0.423745 0.149861,0.888831 0,0.470254 -0.134359,1.049029 -0.134358,0.573606 -0.361733,1.105872 -0.222208,0.532265 -0.542601,1.033525 -0.315225,0.50126 -0.656289,0.831988 -0.80615,0.816485 -1.648473,0.816485 -0.563271,0 -0.992184,-0.279052 -0.428913,-0.284219 -0.661456,-0.800982 -0.232544,-0.52193 -0.232544,-1.193722 0,-1.157548 0.48059,-2.216912 0.485757,-1.064531 1.281571,-1.720819 0.795815,-0.656289 1.638138,-0.656289 0.408242,0 0.687294,0.211873 z m -0.465086,0.242878 0.09302,-0.05168 -0.02067,-0.02067 q -0.330729,0.0052 -0.682127,0.335895 -0.346231,0.325561 -0.625283,0.842323 -0.279052,0.516763 -0.454751,1.167884 -0.175699,0.651121 -0.175699,1.229895 0,0.418578 0.144693,0.862994 0.149861,0.439248 0.372069,0.733803 0.227376,0.294555 0.434081,0.294555 0.160196,0 0.335896,-0.211873 0.175699,-0.21704 0.320392,-0.60978 0.149862,-0.377237 0.258382,-0.790647 0.10852,-0.41341 0.165364,-0.816485 0.05684,-0.403075 0.05684,-0.733803 0,-0.52193 -0.170532,-0.992184 -0.165364,-0.475422 -0.434081,-0.702798 -0.05168,-0.03617 -0.05168,-0.07235 0,-0.118856 0.434081,-0.465087 z"
         style="font-style:normal;font-variant:normal;font-weight:bold;font-stretch:normal;font-family:Forte;-inkscape-font-specification:'Forte Bold';stroke-width:0.776798"
         id="path878" />
      <path
         d="m 70.808618,36.203685 h 0.03101 q 0.170532,0 0.423746,-0.155029 0.258381,-0.160196 0.506427,-0.418578 0.320393,-0.330728 0.506428,-0.702797 0.191202,-0.377237 0.191202,-0.702797 0,-0.707965 -0.749306,-0.857826 -0.144694,-0.02067 -0.206705,-0.06201 -0.06201,-0.04651 -0.06201,-0.139526 0,-0.103352 0.248046,-0.315225 0.37207,-0.32556 0.578775,-0.707965 0.211872,-0.387572 0.211872,-0.775144 0,-0.41341 -0.170531,-0.41341 -0.139526,0 -0.346231,0.222208 -0.206705,0.21704 -0.397908,0.558104 -0.186034,0.341063 -0.279051,0.671791 -0.03101,0.113688 -0.06201,0.149862 -0.03101,0.03101 -0.08785,0.03101 -0.149861,0 -0.372069,-0.232543 -0.315225,-0.335896 -0.315225,-0.682127 0,-0.397907 0.320393,-0.790647 0.32556,-0.392739 0.842323,-0.635618 0.516763,-0.242878 1.059364,-0.242878 0.439248,0 0.800982,0.170532 0.361734,0.170531 0.563271,0.475421 0.201537,0.299723 0.201537,0.676959 0,0.687295 -0.594277,1.100705 -0.310057,0.211873 -0.769976,0.403075 v 0.02067 q 0.728635,0.04134 1.095537,0.325561 0.366901,0.284219 0.366901,0.795814 0,0.237711 -0.113687,0.527098 -0.108521,0.28422 -0.315226,0.58911 -0.201537,0.299722 -0.485757,0.599444 -0.620115,0.656289 -1.34875,1.028358 -0.728636,0.366902 -1.400427,0.366902 -0.640786,0 -1.069699,-0.408243 -0.423745,-0.408242 -0.423745,-1.02319 0,-0.418578 0.284219,-0.837156 0.289387,-0.418577 0.744139,-0.682126 0.454751,-0.268717 0.909502,-0.268717 0.191202,0 0.191202,0.139526 0,0.05684 -0.160196,0.191202 -0.0155,0.0155 -0.03617,0.03617 -0.0155,0.0155 -0.03617,0.03617 -0.201538,0.232543 -0.315225,0.578774 -0.108521,0.346231 -0.108521,0.723468 0,0.372069 0.149862,0.635618 z"
         style="font-style:normal;font-variant:normal;font-weight:bold;font-stretch:normal;font-family:Forte;-inkscape-font-specification:'Forte Bold';stroke-width:0.776798"
         id="path880" />
    </g>
  </g>
</svg>
